<?xml version="1.0" standalone="no"?>
<!DOCTYPE svg PUBLIC "-//W3C//DTD SVG 20010904//EN"
 "http://www.w3.org/TR/2001/REC-SVG-20010904/DTD/svg10.dtd">
<svg version="1.0" xmlns="http://www.w3.org/2000/svg"
 width="80.000000pt" height="80.000000pt" viewBox="0 0 80.000000 80.000000"
 preserveAspectRatio="xMidYMid meet">
<metadata>
Created by potrace 1.14, written by Peter Selinger 2001-2017
</metadata>
<g transform="translate(0.000000,80.000000) scale(0.100000,-0.100000)"
fill="#000000" stroke="none">
<path d="M619 682 l-26 -27 23 -36 c65 -103 71 -250 15 -364 l-32 -65 27 -35
c14 -19 29 -35 33 -35 11 0 59 84 76 135 22 65 31 206 16 274 -16 76 -68 181
-89 181 -9 0 -29 -12 -43 -28z"/>
<path d="M53 496 c0 -143 3 -206 11 -209 6 -2 40 -3 76 -3 52 1 65 4 68 18 2
13 -4 16 -30 16 -18 0 -45 0 -59 1 l-26 1 1 190 c1 186 1 190 -20 190 -20 0
-21 -4 -21 -204z"/>
<path d="M517 563 c-25 -35 -26 -38 -11 -62 21 -32 22 -117 1 -156 -15 -30
-15 -32 17 -70 l33 -39 16 25 c29 46 46 115 43 177 -4 62 -42 162 -62 162 -6
0 -23 -17 -37 -37z"/>
<path d="M272 513 c2 -14 14 -18 57 -18 64 -1 87 -22 89 -84 3 -59 -22 -81
-93 -81 l-55 0 0 -104 c0 -80 3 -105 14 -109 23 -9 26 2 26 94 l0 87 33 -2
c34 -3 75 13 96 38 16 19 21 114 7 144 -14 34 -57 52 -121 52 -48 0 -56 -3
-53 -17z"/>
<path d="M288 459 c-25 -14 -23 -65 2 -79 44 -24 88 17 67 61 -14 27 -43 34
-69 18z"/>
</g>
</svg>
